<?xml version="1.0" encoding="utf-8"?>
<!-- Generator: Adobe Illustrator 27.5.0, SVG Export Plug-In . SVG Version: 6.00 Build 0)  -->
<svg version="1.1" xmlns="http://www.w3.org/2000/svg" xmlns:xlink="http://www.w3.org/1999/xlink" x="0px" y="0px"
	 viewBox="0 0 750 500" style="enable-background:new 0 0 750 500;" xml:space="preserve">
<g id="BACKGROUND">
	<rect style="fill:#FFFFFF;" width="750" height="500"/>
</g>
<g id="OBJECTS">
	<g>
		<g>
			<path style="fill:#F7F7F7;" d="M330.626,196.609c0,0-3.689-10.221-20.021-8.585c0,0-1.4-12.989-12.319-20.071
				c-10.607-6.88-19.61-4.686-19.61-4.686s-5.874-23.73-32.435-27.508c-26.561-3.777-39.822,19.266-39.822,19.266
				s-3.248-7.374-10.94-10.538s-15.509,0.106-15.509,0.106s-0.654-13.256-11.235-20.939c-10.641-7.726-20.824-4.284-20.824-4.284
				s-8.813-21.15-36.485-25.192c-31.206-4.558-45.918,12.665-48.793,17.241c0,0,20.067-16.233,47.557-10.785
				c30.581,6.06,33.958,26.339,33.958,26.339s12.871-2.736,22.165,5.889c9.294,8.625,9.655,20.353,9.655,20.353
				s9.044-5.325,18.814-0.492c9.77,4.834,11.227,11.853,11.227,11.853s10.267-21.405,35.316-20.737
				c25.05,0.668,33.843,16.719,33.919,25.316c0,0,12.79-3.97,22.654,3.788c9.863,7.759,10.621,19.48,10.621,19.48
				S321.641,187.37,330.626,196.609z"/>
			<path style="fill:#F7F7F7;" d="M81.105,56.592c0,0,23.109-11.572,41.405,8.949c0,0,17.196-13.068,36.765-2.318
				c20.278,11.14,15.864,28.101,15.864,28.101s5.534-2.108,11.375,0.507c7.788,3.486,7.79,9.889,7.79,9.889
				s7.979-3.489,16.917,2.658c0,0-4.25-6.601-14.253-7.596c0,0-1.328-5.499-8.231-8.552c-4.579-2.025-9.331-1.174-9.331-1.174
				s1.904-16.618-17.266-27.997c-16.536-9.816-34.697-2.354-38.751,0.76c0,0-6.78-8.619-20.002-9.459
				C88.358,49.407,81.105,56.592,81.105,56.592z"/>
			<path style="fill:#F7F7F7;" d="M415.15,196.609c0,0,3.689-10.221,20.021-8.585c0,0,1.4-12.989,12.319-20.071
				c10.607-6.88,19.61-4.686,19.61-4.686s5.873-23.73,32.435-27.508c26.561-3.777,39.822,19.266,39.822,19.266
				s3.248-7.374,10.94-10.538c7.693-3.164,15.509,0.106,15.509,0.106s0.654-13.256,11.236-20.939
				c10.641-7.726,20.824-4.284,20.824-4.284s8.813-21.15,36.485-25.192c31.206-4.558,45.918,12.665,48.793,17.241
				c0,0-20.067-16.233-47.557-10.785c-30.581,6.06-33.958,26.339-33.958,26.339s-12.871-2.736-22.165,5.889
				c-9.294,8.625-9.655,20.353-9.655,20.353s-9.044-5.325-18.814-0.492c-9.77,4.834-11.227,11.853-11.227,11.853
				s-10.267-21.405-35.316-20.737c-25.05,0.668-33.843,16.719-33.919,25.316c0,0-12.79-3.97-22.654,3.788
				c-9.863,7.759-10.621,19.48-10.621,19.48S424.136,187.37,415.15,196.609z"/>
			<path style="fill:#F7F7F7;" d="M664.672,56.592c0,0-23.109-11.572-41.405,8.949c0,0-17.196-13.068-36.765-2.318
				c-20.278,11.14-15.864,28.101-15.864,28.101s-5.534-2.108-11.375,0.507c-7.788,3.486-7.79,9.889-7.79,9.889
				s-7.979-3.489-16.917,2.658c0,0,4.25-6.601,14.253-7.596c0,0,1.328-5.499,8.231-8.552c4.579-2.025,9.331-1.174,9.331-1.174
				s-1.904-16.618,17.266-27.997c16.536-9.816,34.697-2.354,38.751,0.76c0,0,6.78-8.619,20.002-9.459
				C657.418,49.407,664.672,56.592,664.672,56.592z"/>
			<circle style="fill:#F7F7F7;" cx="267.137" cy="104.346" r="7.093"/>
			<path style="fill:#F7F7F7;" d="M109.403,137.735c0,2.495-2.023,4.518-4.518,4.518s-4.518-2.023-4.518-4.518
				c0-2.495,2.023-4.518,4.518-4.518S109.403,135.24,109.403,137.735z"/>
			<path style="fill:#F7F7F7;" d="M491.162,111.255c0,1.813-1.47,3.283-3.283,3.283s-3.283-1.47-3.283-3.283
				c0-1.813,1.47-3.283,3.283-3.283S491.162,109.442,491.162,111.255z"/>
			<path style="fill:#F7F7F7;" d="M508.06,171.542c0,3.531-2.862,6.393-6.393,6.393c-3.53,0-6.393-2.862-6.393-6.393
				c0-3.531,2.862-6.393,6.393-6.393C505.198,165.149,508.06,168.011,508.06,171.542z"/>
			<path style="fill:#F7F7F7;" d="M644.654,122.609c0,2.151-1.744,3.896-3.896,3.896c-2.151,0-3.896-1.744-3.896-3.896
				c0-2.151,1.744-3.895,3.896-3.895C642.91,118.714,644.654,120.458,644.654,122.609z"/>
			<path style="fill:#F7F7F7;" d="M423.473,50.273c0,1.813-1.47,3.283-3.283,3.283s-3.283-1.47-3.283-3.283s1.47-3.283,3.283-3.283
				S423.473,48.46,423.473,50.273z"/>
		</g>
		<g>
			<g>
				<rect x="73.174" y="195.335" style="fill:#EDE5E7;" width="57.733" height="224.616"/>
				<g>
					<g>
						<rect x="79.336" y="204.792" style="fill:#FCF3F5;" width="6.913" height="6.913"/>
						<rect x="92.168" y="204.792" style="fill:#FCF3F5;" width="6.913" height="6.913"/>
						<rect x="105" y="204.792" style="fill:#FCF3F5;" width="6.913" height="6.913"/>
						<rect x="117.832" y="204.792" style="fill:#FCF3F5;" width="6.913" height="6.913"/>
					</g>
					<g>
						<rect x="79.336" y="216.369" style="fill:#FCF3F5;" width="6.913" height="6.913"/>
						<rect x="92.168" y="216.369" style="fill:#FCF3F5;" width="6.913" height="6.913"/>
						<rect x="105" y="216.369" style="fill:#FCF3F5;" width="6.913" height="6.913"/>
						<rect x="117.832" y="216.369" style="fill:#FCF3F5;" width="6.913" height="6.913"/>
					</g>
					<g>
						<rect x="79.336" y="227.945" style="fill:#FCF3F5;" width="6.913" height="6.913"/>
						<rect x="92.168" y="227.945" style="fill:#FCF3F5;" width="6.913" height="6.913"/>
						<rect x="105" y="227.945" style="fill:#FCF3F5;" width="6.913" height="6.913"/>
						<rect x="117.832" y="227.945" style="fill:#FCF3F5;" width="6.913" height="6.913"/>
					</g>
					<g>
						<rect x="79.336" y="239.522" style="fill:#FCF3F5;" width="6.913" height="6.913"/>
						<rect x="92.168" y="239.522" style="fill:#FCF3F5;" width="6.913" height="6.913"/>
						<rect x="105" y="239.522" style="fill:#FCF3F5;" width="6.913" height="6.913"/>
						<rect x="117.832" y="239.522" style="fill:#FCF3F5;" width="6.913" height="6.913"/>
					</g>
					<g>
						<rect x="79.336" y="251.099" style="fill:#FCF3F5;" width="6.913" height="6.913"/>
						<rect x="92.168" y="251.099" style="fill:#FCF3F5;" width="6.913" height="6.913"/>
						<rect x="105" y="251.099" style="fill:#FCF3F5;" width="6.913" height="6.913"/>
						<rect x="117.832" y="251.099" style="fill:#FCF3F5;" width="6.913" height="6.913"/>
					</g>
					<g>
						<rect x="79.336" y="262.676" style="fill:#FCF3F5;" width="6.913" height="6.913"/>
						<rect x="92.168" y="262.676" style="fill:#FCF3F5;" width="6.913" height="6.913"/>
						<rect x="105" y="262.676" style="fill:#FCF3F5;" width="6.913" height="6.913"/>
						<rect x="117.832" y="262.676" style="fill:#FCF3F5;" width="6.913" height="6.913"/>
					</g>
					<g>
						<rect x="79.336" y="274.252" style="fill:#FCF3F5;" width="6.913" height="6.913"/>
						<rect x="92.168" y="274.252" style="fill:#FCF3F5;" width="6.913" height="6.913"/>
						<rect x="105" y="274.252" style="fill:#FCF3F5;" width="6.913" height="6.913"/>
						<rect x="117.832" y="274.252" style="fill:#FCF3F5;" width="6.913" height="6.913"/>
					</g>
					<g>
						<rect x="79.336" y="285.829" style="fill:#FCF3F5;" width="6.913" height="6.913"/>
						<rect x="92.168" y="285.829" style="fill:#FCF3F5;" width="6.913" height="6.913"/>
						<rect x="105" y="285.829" style="fill:#FCF3F5;" width="6.913" height="6.913"/>
						<rect x="117.832" y="285.829" style="fill:#FCF3F5;" width="6.913" height="6.913"/>
					</g>
					<g>
						<rect x="79.336" y="297.406" style="fill:#FCF3F5;" width="6.913" height="6.913"/>
						<rect x="92.168" y="297.406" style="fill:#FCF3F5;" width="6.913" height="6.913"/>
						<rect x="105" y="297.406" style="fill:#FCF3F5;" width="6.913" height="6.913"/>
						<rect x="117.832" y="297.406" style="fill:#FCF3F5;" width="6.913" height="6.913"/>
					</g>
					<g>
						<rect x="79.336" y="308.982" style="fill:#FCF3F5;" width="6.913" height="6.913"/>
						<rect x="92.168" y="308.982" style="fill:#FCF3F5;" width="6.913" height="6.913"/>
						<rect x="105" y="308.982" style="fill:#FCF3F5;" width="6.913" height="6.913"/>
						<rect x="117.832" y="308.982" style="fill:#FCF3F5;" width="6.913" height="6.913"/>
					</g>
					<g>
						<rect x="79.336" y="320.559" style="fill:#FCF3F5;" width="6.913" height="6.913"/>
						<rect x="92.168" y="320.559" style="fill:#FCF3F5;" width="6.913" height="6.913"/>
						<rect x="105" y="320.559" style="fill:#FCF3F5;" width="6.913" height="6.913"/>
						<rect x="117.832" y="320.559" style="fill:#FCF3F5;" width="6.913" height="6.913"/>
					</g>
					<g>
						<rect x="79.336" y="332.136" style="fill:#FCF3F5;" width="6.913" height="6.913"/>
						<rect x="92.168" y="332.136" style="fill:#FCF3F5;" width="6.913" height="6.913"/>
						<rect x="105" y="332.136" style="fill:#FCF3F5;" width="6.913" height="6.913"/>
						<rect x="117.832" y="332.136" style="fill:#FCF3F5;" width="6.913" height="6.913"/>
					</g>
					<g>
						<rect x="79.336" y="343.712" style="fill:#FCF3F5;" width="6.913" height="6.913"/>
						<rect x="92.168" y="343.712" style="fill:#FCF3F5;" width="6.913" height="6.913"/>
						<rect x="105" y="343.712" style="fill:#FCF3F5;" width="6.913" height="6.913"/>
						<rect x="117.832" y="343.712" style="fill:#FCF3F5;" width="6.913" height="6.913"/>
					</g>
					<g>
						<rect x="79.336" y="355.289" style="fill:#FCF3F5;" width="6.913" height="6.913"/>
						<rect x="92.168" y="355.289" style="fill:#FCF3F5;" width="6.913" height="6.913"/>
						<rect x="105" y="355.289" style="fill:#FCF3F5;" width="6.913" height="6.913"/>
						<rect x="117.832" y="355.289" style="fill:#FCF3F5;" width="6.913" height="6.913"/>
					</g>
					<g>
						<rect x="79.336" y="366.866" style="fill:#FCF3F5;" width="6.913" height="6.913"/>
						<rect x="92.168" y="366.866" style="fill:#FCF3F5;" width="6.913" height="6.913"/>
						<rect x="105" y="366.866" style="fill:#FCF3F5;" width="6.913" height="6.913"/>
						<rect x="117.832" y="366.866" style="fill:#FCF3F5;" width="6.913" height="6.913"/>
					</g>
					<g>
						<rect x="79.336" y="378.443" style="fill:#FCF3F5;" width="6.913" height="6.913"/>
						<rect x="92.168" y="378.443" style="fill:#FCF3F5;" width="6.913" height="6.913"/>
						<rect x="105" y="378.443" style="fill:#FCF3F5;" width="6.913" height="6.913"/>
						<rect x="117.832" y="378.443" style="fill:#FCF3F5;" width="6.913" height="6.913"/>
					</g>
					<g>
						<rect x="79.336" y="390.019" style="fill:#FCF3F5;" width="6.913" height="6.913"/>
						<rect x="92.168" y="390.019" style="fill:#FCF3F5;" width="6.913" height="6.913"/>
						<rect x="105" y="390.019" style="fill:#FCF3F5;" width="6.913" height="6.913"/>
						<rect x="117.832" y="390.019" style="fill:#FCF3F5;" width="6.913" height="6.913"/>
					</g>
				</g>
				<polygon style="fill:#EDE5E7;" points="102.04,160.602 73.174,190.798 130.907,190.798 				"/>
				<circle style="fill:#FCF3F5;" cx="102.04" cy="179.727" r="5.859"/>
			</g>
			<g>
				<rect x="609.392" y="182.134" style="fill:#EDE5E7;" width="62.733" height="244.069"/>
				<g>
					<g>
						<rect x="616.088" y="192.411" style="fill:#FCF3F5;" width="7.512" height="7.512"/>
						<rect x="630.031" y="192.411" style="fill:#FCF3F5;" width="7.511" height="7.512"/>
						<rect x="643.975" y="192.411" style="fill:#FCF3F5;" width="7.511" height="7.512"/>
						<rect x="657.918" y="192.411" style="fill:#FCF3F5;" width="7.512" height="7.512"/>
					</g>
					<g>
						<rect x="616.088" y="204.99" style="fill:#FCF3F5;" width="7.512" height="7.512"/>
						<rect x="630.031" y="204.99" style="fill:#FCF3F5;" width="7.511" height="7.512"/>
						<rect x="643.975" y="204.99" style="fill:#FCF3F5;" width="7.511" height="7.512"/>
						<rect x="657.918" y="204.99" style="fill:#FCF3F5;" width="7.512" height="7.512"/>
					</g>
					<g>
						<rect x="616.088" y="217.569" style="fill:#FCF3F5;" width="7.512" height="7.511"/>
						<rect x="630.031" y="217.569" style="fill:#FCF3F5;" width="7.511" height="7.511"/>
						<rect x="643.975" y="217.569" style="fill:#FCF3F5;" width="7.511" height="7.511"/>
						<rect x="657.918" y="217.569" style="fill:#FCF3F5;" width="7.512" height="7.511"/>
					</g>
					<g>
						<rect x="616.088" y="230.148" style="fill:#FCF3F5;" width="7.512" height="7.511"/>
						<rect x="630.031" y="230.148" style="fill:#FCF3F5;" width="7.511" height="7.511"/>
						<rect x="643.975" y="230.148" style="fill:#FCF3F5;" width="7.511" height="7.511"/>
						<rect x="657.918" y="230.148" style="fill:#FCF3F5;" width="7.512" height="7.511"/>
					</g>
					<g>
						<rect x="616.088" y="242.728" style="fill:#FCF3F5;" width="7.512" height="7.511"/>
						<rect x="630.031" y="242.728" style="fill:#FCF3F5;" width="7.511" height="7.511"/>
						<rect x="643.975" y="242.728" style="fill:#FCF3F5;" width="7.511" height="7.511"/>
						<rect x="657.918" y="242.728" style="fill:#FCF3F5;" width="7.512" height="7.511"/>
					</g>
					<g>
						<rect x="616.088" y="255.307" style="fill:#FCF3F5;" width="7.512" height="7.511"/>
						<rect x="630.031" y="255.307" style="fill:#FCF3F5;" width="7.511" height="7.511"/>
						<rect x="643.975" y="255.307" style="fill:#FCF3F5;" width="7.511" height="7.511"/>
						<rect x="657.918" y="255.307" style="fill:#FCF3F5;" width="7.512" height="7.511"/>
					</g>
					<g>
						<rect x="616.088" y="267.886" style="fill:#FCF3F5;" width="7.512" height="7.512"/>
						<rect x="630.031" y="267.886" style="fill:#FCF3F5;" width="7.511" height="7.512"/>
						<rect x="643.975" y="267.886" style="fill:#FCF3F5;" width="7.511" height="7.512"/>
						<rect x="657.918" y="267.886" style="fill:#FCF3F5;" width="7.512" height="7.512"/>
					</g>
					<g>
						<rect x="616.088" y="280.466" style="fill:#FCF3F5;" width="7.512" height="7.512"/>
						<rect x="630.031" y="280.466" style="fill:#FCF3F5;" width="7.511" height="7.512"/>
						<rect x="643.975" y="280.466" style="fill:#FCF3F5;" width="7.511" height="7.512"/>
						<rect x="657.918" y="280.466" style="fill:#FCF3F5;" width="7.512" height="7.512"/>
					</g>
					<g>
						<rect x="616.088" y="293.045" style="fill:#FCF3F5;" width="7.512" height="7.512"/>
						<rect x="630.031" y="293.045" style="fill:#FCF3F5;" width="7.511" height="7.512"/>
						<rect x="643.975" y="293.045" style="fill:#FCF3F5;" width="7.511" height="7.512"/>
						<rect x="657.918" y="293.045" style="fill:#FCF3F5;" width="7.512" height="7.512"/>
					</g>
					<g>
						<rect x="616.088" y="305.624" style="fill:#FCF3F5;" width="7.512" height="7.511"/>
						<rect x="630.031" y="305.624" style="fill:#FCF3F5;" width="7.511" height="7.511"/>
						<rect x="643.975" y="305.624" style="fill:#FCF3F5;" width="7.511" height="7.511"/>
						<rect x="657.918" y="305.624" style="fill:#FCF3F5;" width="7.512" height="7.511"/>
					</g>
					<g>
						<rect x="616.088" y="318.203" style="fill:#FCF3F5;" width="7.512" height="7.511"/>
						<rect x="630.031" y="318.203" style="fill:#FCF3F5;" width="7.511" height="7.511"/>
						<rect x="643.975" y="318.203" style="fill:#FCF3F5;" width="7.511" height="7.511"/>
						<rect x="657.918" y="318.203" style="fill:#FCF3F5;" width="7.512" height="7.511"/>
					</g>
					<g>
						<rect x="616.088" y="330.783" style="fill:#FCF3F5;" width="7.512" height="7.511"/>
						<rect x="630.031" y="330.783" style="fill:#FCF3F5;" width="7.511" height="7.511"/>
						<rect x="643.975" y="330.783" style="fill:#FCF3F5;" width="7.511" height="7.511"/>
						<rect x="657.918" y="330.783" style="fill:#FCF3F5;" width="7.512" height="7.511"/>
					</g>
					<g>
						<rect x="616.088" y="343.362" style="fill:#FCF3F5;" width="7.512" height="7.511"/>
						<rect x="630.031" y="343.362" style="fill:#FCF3F5;" width="7.511" height="7.511"/>
						<rect x="643.975" y="343.362" style="fill:#FCF3F5;" width="7.511" height="7.511"/>
						<rect x="657.918" y="343.362" style="fill:#FCF3F5;" width="7.512" height="7.511"/>
					</g>
					<g>
						<rect x="616.088" y="355.941" style="fill:#FCF3F5;" width="7.512" height="7.511"/>
						<rect x="630.031" y="355.941" style="fill:#FCF3F5;" width="7.511" height="7.511"/>
						<rect x="643.975" y="355.941" style="fill:#FCF3F5;" width="7.511" height="7.511"/>
						<rect x="657.918" y="355.941" style="fill:#FCF3F5;" width="7.512" height="7.511"/>
					</g>
					<g>
						<rect x="616.088" y="368.521" style="fill:#FCF3F5;" width="7.512" height="7.512"/>
						<rect x="630.031" y="368.521" style="fill:#FCF3F5;" width="7.511" height="7.512"/>
						<rect x="643.975" y="368.521" style="fill:#FCF3F5;" width="7.511" height="7.512"/>
						<rect x="657.918" y="368.521" style="fill:#FCF3F5;" width="7.512" height="7.512"/>
					</g>
					<g>
						<rect x="616.088" y="381.1" style="fill:#FCF3F5;" width="7.512" height="7.512"/>
						<rect x="630.031" y="381.1" style="fill:#FCF3F5;" width="7.511" height="7.512"/>
						<rect x="643.975" y="381.1" style="fill:#FCF3F5;" width="7.511" height="7.512"/>
						<rect x="657.918" y="381.1" style="fill:#FCF3F5;" width="7.512" height="7.512"/>
					</g>
					<g>
						<rect x="616.088" y="393.679" style="fill:#FCF3F5;" width="7.512" height="7.512"/>
						<rect x="630.031" y="393.679" style="fill:#FCF3F5;" width="7.511" height="7.512"/>
						<rect x="643.975" y="393.679" style="fill:#FCF3F5;" width="7.511" height="7.512"/>
						<rect x="657.918" y="393.679" style="fill:#FCF3F5;" width="7.512" height="7.512"/>
					</g>
				</g>
				<polygon style="fill:#EDE5E7;" points="640.759,144.394 609.392,177.205 672.125,177.205 				"/>
				<path style="fill:#FCF3F5;" d="M647.125,165.176c0,3.516-2.85,6.366-6.366,6.366c-3.516,0-6.366-2.85-6.366-6.366
					s2.85-6.366,6.366-6.366C644.275,158.809,647.125,161.66,647.125,165.176z"/>
			</g>
			<g>
				<rect x="192.61" y="248.073" style="fill:#EDE5E7;" width="77.721" height="140.283"/>
				<polygon style="fill:#EDE5E7;" points="231.47,183.302 192.468,244.329 270.473,244.329 				"/>
				<rect x="246.647" y="194.765" style="fill:#EDE5E7;" width="15.113" height="41.021"/>
				<circle style="fill:#FCF3F5;" cx="231.47" cy="222.472" r="10.795"/>
				<g>
					<rect x="201.906" y="259.333" style="fill:#FCF3F5;" width="13.629" height="37.479"/>
					<rect x="224.656" y="259.333" style="fill:#FCF3F5;" width="13.629" height="37.479"/>
					<rect x="247.407" y="259.333" style="fill:#FCF3F5;" width="13.629" height="37.479"/>
				</g>
				<g>
					<rect x="201.906" y="303.47" style="fill:#FCF3F5;" width="13.629" height="37.479"/>
					<rect x="224.656" y="303.47" style="fill:#FCF3F5;" width="13.629" height="37.479"/>
					<rect x="247.407" y="303.47" style="fill:#FCF3F5;" width="13.629" height="37.479"/>
				</g>
				<path style="fill:#FCF3F5;" d="M232.083,348.145h-0.864c-10.865,0-19.674,8.808-19.674,19.674v20.537h40.211v-20.537
					C251.757,356.953,242.949,348.145,232.083,348.145z"/>
			</g>
			<g>
				<rect x="461.699" y="233.408" style="fill:#EDE5E7;" width="91.465" height="148.536"/>
				<polygon style="fill:#EDE5E7;" points="532.06,192.638 482.803,192.638 461.699,229.724 553.164,229.724 				"/>
				<g>
					<g>
						<path style="fill:#FCF3F5;" d="M488.825,272.332h-14.466V256.3c0-3.995,3.238-7.233,7.233-7.233l0,0
							c3.995,0,7.233,3.238,7.233,7.233V272.332z"/>
						<path style="fill:#FCF3F5;" d="M514.664,272.332h-14.466V256.3c0-3.995,3.238-7.233,7.233-7.233l0,0
							c3.995,0,7.233,3.238,7.233,7.233V272.332z"/>
						<path style="fill:#FCF3F5;" d="M540.504,272.332h-14.466V256.3c0-3.995,3.238-7.233,7.233-7.233l0,0
							c3.995,0,7.233,3.238,7.233,7.233V272.332z"/>
					</g>
					<g>
						<path style="fill:#FCF3F5;" d="M488.825,303.649h-14.466v-16.032c0-3.995,3.238-7.233,7.233-7.233l0,0
							c3.995,0,7.233,3.238,7.233,7.233V303.649z"/>
						<path style="fill:#FCF3F5;" d="M514.664,303.649h-14.466v-16.032c0-3.995,3.238-7.233,7.233-7.233l0,0
							c3.995,0,7.233,3.238,7.233,7.233V303.649z"/>
						<path style="fill:#FCF3F5;" d="M540.504,303.649h-14.466v-16.032c0-3.995,3.238-7.233,7.233-7.233l0,0
							c3.995,0,7.233,3.238,7.233,7.233V303.649z"/>
					</g>
					<g>
						<path style="fill:#FCF3F5;" d="M488.825,334.967h-14.466v-16.032c0-3.995,3.238-7.233,7.233-7.233l0,0
							c3.995,0,7.233,3.238,7.233,7.233V334.967z"/>
						<path style="fill:#FCF3F5;" d="M514.664,334.967h-14.466v-16.032c0-3.995,3.238-7.233,7.233-7.233l0,0
							c3.995,0,7.233,3.238,7.233,7.233V334.967z"/>
						<path style="fill:#FCF3F5;" d="M540.504,334.967h-14.466v-16.032c0-3.995,3.238-7.233,7.233-7.233l0,0
							c3.995,0,7.233,3.238,7.233,7.233V334.967z"/>
					</g>
					<g>
						<path style="fill:#FCF3F5;" d="M488.825,366.285h-14.466v-16.032c0-3.995,3.238-7.233,7.233-7.233l0,0
							c3.995,0,7.233,3.238,7.233,7.233V366.285z"/>
						<path style="fill:#FCF3F5;" d="M514.664,366.285h-14.466v-16.032c0-3.995,3.238-7.233,7.233-7.233l0,0
							c3.995,0,7.233,3.238,7.233,7.233V366.285z"/>
						<path style="fill:#FCF3F5;" d="M540.504,366.285h-14.466v-16.032c0-3.995,3.238-7.233,7.233-7.233l0,0
							c3.995,0,7.233,3.238,7.233,7.233V366.285z"/>
					</g>
				</g>
				
					<ellipse transform="matrix(0.1607 -0.987 0.987 0.1607 217.4547 678.0833)" style="fill:#FCF3F5;" cx="507.431" cy="211.181" rx="10.169" ry="10.169"/>
			</g>
			<g>
				<path style="fill:#F9A395;" d="M588,188.869c0-0.896-0.601-1.643-1.418-1.884v-25.314c0.552-0.221,0.943-0.758,0.943-1.389
					c0-0.827-0.671-1.498-1.498-1.498c-0.827,0-1.498,0.671-1.498,1.498c0,0.631,0.391,1.168,0.943,1.389v25.314
					c-0.818,0.241-1.418,0.989-1.418,1.884c0,0.896,0.601,1.644,1.418,1.885v2.169h1.11v-2.169
					C587.4,190.512,588,189.764,588,188.869z"/>
				<path style="fill:#F2836B;" d="M588.756,188.869h-5.458c-0.252,11.114-6.558,13.736-6.558,13.736v1.849v0.866v26.842h18.574
					v-26.842v-0.866v-1.849C595.314,202.605,589.008,199.983,588.756,188.869z"/>
				<rect x="540.556" y="282.64" style="fill:#F2836B;" width="90.942" height="130.085"/>
				<path style="fill:#F2836B;" d="M622.263,269.523H549.79v-14.336c0-18.47,14.973-33.443,33.443-33.443h5.586
					c18.47,0,33.443,14.973,33.443,33.443V269.523z"/>
				<rect x="573.273" y="218.307" style="fill:#F9A395;" width="25.508" height="9.874"/>
				<path style="fill:#F9A395;" d="M625.803,271.701H546.25v-0.404c0-2.673,2.167-4.84,4.84-4.84h69.873
					c2.673,0,4.84,2.167,4.84,4.84V271.701z"/>
				<path style="fill:#F2836B;" d="M630.231,281.78h-88.408c-2.35,0-4.255-1.905-4.255-4.255v-0.711c0-2.35,1.905-4.255,4.255-4.255
					h88.408c2.35,0,4.255,1.905,4.255,4.255v0.711C634.485,279.875,632.581,281.78,630.231,281.78z"/>
				<g>
					<rect x="540.881" y="275.15" style="fill:#F9A395;" width="4.04" height="4.04"/>
					<rect x="548.722" y="275.15" style="fill:#F9A395;" width="4.04" height="4.04"/>
					<rect x="556.563" y="275.15" style="fill:#F9A395;" width="4.04" height="4.04"/>
					<rect x="564.404" y="275.15" style="fill:#F9A395;" width="4.04" height="4.04"/>
					<rect x="572.245" y="275.15" style="fill:#F9A395;" width="4.04" height="4.04"/>
					<rect x="580.086" y="275.15" style="fill:#F9A395;" width="4.04" height="4.04"/>
					<rect x="587.927" y="275.15" style="fill:#F9A395;" width="4.04" height="4.04"/>
					<rect x="595.768" y="275.15" style="fill:#F9A395;" width="4.04" height="4.04"/>
					<rect x="603.609" y="275.15" style="fill:#F9A395;" width="4.04" height="4.04"/>
					<rect x="611.45" y="275.15" style="fill:#F9A395;" width="4.04" height="4.04"/>
					<rect x="619.291" y="275.15" style="fill:#F9A395;" width="4.04" height="4.04"/>
					<rect x="627.132" y="275.15" style="fill:#F9A395;" width="4.04" height="4.04"/>
				</g>
				<path style="fill:#F2836B;" d="M630.231,333.457h-88.408c-2.35,0-4.255-1.905-4.255-4.255v-0.711
					c0-2.35,1.905-4.255,4.255-4.255h88.408c2.35,0,4.255,1.905,4.255,4.255v0.711C634.485,331.552,632.581,333.457,630.231,333.457
					z"/>
				<g>
					<rect x="540.881" y="326.827" style="fill:#F9A395;" width="4.04" height="4.04"/>
					<rect x="548.722" y="326.827" style="fill:#F9A395;" width="4.04" height="4.04"/>
					<rect x="556.563" y="326.827" style="fill:#F9A395;" width="4.04" height="4.04"/>
					<rect x="564.404" y="326.827" style="fill:#F9A395;" width="4.04" height="4.04"/>
					<rect x="572.245" y="326.827" style="fill:#F9A395;" width="4.04" height="4.04"/>
					<rect x="580.086" y="326.827" style="fill:#F9A395;" width="4.04" height="4.04"/>
					<rect x="587.927" y="326.827" style="fill:#F9A395;" width="4.04" height="4.04"/>
					<rect x="595.768" y="326.827" style="fill:#F9A395;" width="4.04" height="4.04"/>
					<rect x="603.609" y="326.827" style="fill:#F9A395;" width="4.04" height="4.04"/>
					<rect x="611.45" y="326.827" style="fill:#F9A395;" width="4.04" height="4.04"/>
					<rect x="619.291" y="326.827" style="fill:#F9A395;" width="4.04" height="4.04"/>
					<rect x="627.132" y="326.827" style="fill:#F9A395;" width="4.04" height="4.04"/>
				</g>
				<g>
					<rect x="549.732" y="286.375" style="fill:#F9A395;" width="9.861" height="33.266"/>
					<rect x="565.414" y="286.375" style="fill:#F9A395;" width="9.861" height="33.266"/>
					<rect x="581.096" y="286.375" style="fill:#F9A395;" width="9.861" height="33.266"/>
					<rect x="596.778" y="286.375" style="fill:#F9A395;" width="9.861" height="33.266"/>
					<rect x="612.46" y="286.375" style="fill:#F9A395;" width="9.861" height="33.266"/>
				</g>
				<path style="fill:#F2836B;" d="M630.231,389.864h-88.408c-2.35,0-4.255-1.905-4.255-4.255v-0.711
					c0-2.35,1.905-4.255,4.255-4.255h88.408c2.35,0,4.255,1.905,4.255,4.255v0.711C634.485,387.959,632.581,389.864,630.231,389.864
					z"/>
				<g>
					<rect x="540.881" y="383.234" style="fill:#F9A395;" width="4.04" height="4.04"/>
					<rect x="548.722" y="383.234" style="fill:#F9A395;" width="4.04" height="4.04"/>
					<rect x="556.563" y="383.234" style="fill:#F9A395;" width="4.04" height="4.04"/>
					<rect x="564.404" y="383.234" style="fill:#F9A395;" width="4.04" height="4.04"/>
					<rect x="572.245" y="383.234" style="fill:#F9A395;" width="4.04" height="4.04"/>
					<rect x="580.086" y="383.234" style="fill:#F9A395;" width="4.04" height="4.04"/>
					<rect x="587.927" y="383.234" style="fill:#F9A395;" width="4.04" height="4.04"/>
					<rect x="595.768" y="383.234" style="fill:#F9A395;" width="4.04" height="4.04"/>
					<rect x="603.609" y="383.234" style="fill:#F9A395;" width="4.04" height="4.04"/>
					<rect x="611.45" y="383.234" style="fill:#F9A395;" width="4.04" height="4.04"/>
					<rect x="619.291" y="383.234" style="fill:#F9A395;" width="4.04" height="4.04"/>
					<rect x="627.132" y="383.234" style="fill:#F9A395;" width="4.04" height="4.04"/>
				</g>
				<g>
					<rect x="549.732" y="342.783" style="fill:#F9A395;" width="9.861" height="33.266"/>
					<rect x="565.414" y="342.783" style="fill:#F9A395;" width="9.861" height="33.266"/>
					<rect x="581.096" y="342.783" style="fill:#F9A395;" width="9.861" height="33.266"/>
					<rect x="596.778" y="342.783" style="fill:#F9A395;" width="9.861" height="33.266"/>
					<rect x="612.46" y="342.783" style="fill:#F9A395;" width="9.861" height="33.266"/>
				</g>
				<rect x="537.568" y="402.958" style="fill:#F2836B;" width="96.917" height="13.843"/>
				<rect x="535.594" y="408.404" style="fill:#F2836B;" width="100.866" height="8.397"/>
				<rect x="582.106" y="205.319" style="fill:#F9A395;" width="8.496" height="9.606"/>
			</g>
			<g>
				<g>
					<polygon style="fill:#98A665;" points="501.667,248.505 459.189,416.133 544.146,416.133 					"/>
					<polygon style="fill:#98A665;" points="526.41,248.505 483.931,416.133 568.888,416.133 					"/>
				</g>
				<g>
					<defs>
						<polygon id="SVGID_1_" points="514.039,238.811 461.143,416.133 566.934,416.133 						"/>
					</defs>
					<clipPath id="SVGID_00000005224892709651624910000004489614652933765257_">
						<use xlink:href="#SVGID_1_"  style="overflow:visible;"/>
					</clipPath>
					<polygon style="clip-path:url(#SVGID_00000005224892709651624910000004489614652933765257_);fill:#B2BC86;" points="
						514.039,238.811 461.143,416.133 566.934,416.133 					"/>
					<g style="clip-path:url(#SVGID_00000005224892709651624910000004489614652933765257_);">
						<rect x="451.583" y="404.356" style="opacity:0.1;" width="116.832" height="2.237"/>
						<rect x="451.583" y="390.964" style="opacity:0.1;" width="116.832" height="2.237"/>
						<rect x="451.583" y="377.572" style="opacity:0.1;" width="116.832" height="2.237"/>
						<rect x="451.583" y="364.179" style="opacity:0.1;" width="116.832" height="2.237"/>
						<rect x="451.583" y="350.787" style="opacity:0.1;" width="116.832" height="2.237"/>
						<rect x="451.583" y="337.394" style="opacity:0.1;" width="116.832" height="2.237"/>
						<rect x="451.583" y="324.002" style="opacity:0.1;" width="116.832" height="2.237"/>
						<rect x="451.583" y="310.609" style="opacity:0.1;" width="116.832" height="2.237"/>
						<rect x="451.583" y="297.217" style="opacity:0.1;" width="116.832" height="2.237"/>
						<rect x="451.583" y="283.825" style="opacity:0.1;" width="116.832" height="2.237"/>
						<rect x="451.583" y="270.432" style="opacity:0.1;" width="116.832" height="2.237"/>
						<rect x="451.583" y="257.04" style="opacity:0.1;" width="116.832" height="2.237"/>
						<rect x="451.583" y="243.647" style="opacity:0.1;" width="116.832" height="2.237"/>
						
							<rect x="421.682" y="329.3" transform="matrix(6.123234e-17 -1 1 6.123234e-17 183.6203 844.4566)" style="opacity:0.1;" width="184.712" height="2.237"/>
					</g>
				</g>
			</g>
			<g>
				<rect x="550.378" y="333.716" style="fill:#F2AE2E;" width="123.333" height="83.085"/>
				<rect x="550.378" y="328.142" style="fill:#F7CC8D;" width="23.711" height="88.66"/>
				<rect x="600.189" y="328.142" style="fill:#F7CC8D;" width="23.711" height="88.66"/>
				<rect x="650" y="328.142" style="fill:#F7CC8D;" width="23.711" height="88.66"/>
				<path style="fill:#F7CC8D;" d="M572.444,307.913c-0.909,0-1.645,0.737-1.645,1.645v10.227c0-4.73-3.835-8.565-8.565-8.565
					s-8.565,3.835-8.565,8.565v-10.227c0-0.909-0.737-1.645-1.645-1.645c-0.909,0-1.645,0.737-1.645,1.645v18.792h3.291h17.13h3.291
					v-18.792C574.089,308.65,573.353,307.913,572.444,307.913z"/>
				<path style="fill:#F7CC8D;" d="M622.255,307.913c-0.909,0-1.645,0.737-1.645,1.645v10.227c0-4.73-3.835-8.565-8.565-8.565
					c-4.73,0-8.565,3.835-8.565,8.565v-10.227c0-0.909-0.737-1.645-1.645-1.645c-0.909,0-1.645,0.737-1.645,1.645v18.792h3.291
					h17.13h3.291v-18.792C623.9,308.65,623.164,307.913,622.255,307.913z"/>
				<path style="fill:#F7CC8D;" d="M672.066,307.913c-0.909,0-1.645,0.737-1.645,1.645v10.227c0-4.73-3.835-8.565-8.565-8.565
					s-8.565,3.835-8.565,8.565v-10.227c0-0.909-0.737-1.645-1.645-1.645c-0.909,0-1.645,0.737-1.645,1.645v18.792h3.291h17.13h3.291
					v-18.792C673.711,308.65,672.975,307.913,672.066,307.913z"/>
				<rect x="550.378" y="343.657" style="opacity:0.26;fill:#FFFFFF;" width="123.333" height="2.758"/>
				<rect x="550.378" y="364.856" style="opacity:0.26;fill:#FFFFFF;" width="123.333" height="2.758"/>
				<rect x="550.378" y="341.532" style="opacity:0.26;fill:#FFFFFF;" width="123.333" height="0.889"/>
				<rect x="550.378" y="368.914" style="opacity:0.26;fill:#FFFFFF;" width="123.333" height="0.889"/>
				<g>
					<g>
						<rect x="581.451" y="350.989" style="fill:#F7CC8D;" width="3.76" height="9.292"/>
						<rect x="589.068" y="350.989" style="fill:#F7CC8D;" width="3.76" height="9.292"/>
					</g>
					<g>
						<rect x="631.262" y="350.989" style="fill:#F7CC8D;" width="3.76" height="9.292"/>
						<rect x="638.879" y="350.989" style="fill:#F7CC8D;" width="3.76" height="9.292"/>
					</g>
					<g>
						<rect x="581.451" y="375.258" style="fill:#F7CC8D;" width="3.76" height="9.292"/>
						<rect x="589.068" y="375.258" style="fill:#F7CC8D;" width="3.76" height="9.292"/>
					</g>
					<g>
						<rect x="631.262" y="375.258" style="fill:#F7CC8D;" width="3.76" height="9.292"/>
						<rect x="638.879" y="375.258" style="fill:#F7CC8D;" width="3.76" height="9.292"/>
					</g>
					<g>
						<rect x="581.451" y="393.097" style="fill:#F7CC8D;" width="3.76" height="9.292"/>
						<rect x="589.068" y="393.097" style="fill:#F7CC8D;" width="3.76" height="9.292"/>
					</g>
					<g>
						<rect x="631.262" y="393.097" style="fill:#F7CC8D;" width="3.76" height="9.292"/>
						<rect x="638.879" y="393.097" style="fill:#F7CC8D;" width="3.76" height="9.292"/>
					</g>
				</g>
				<g>
					<rect x="556.545" y="331.947" style="fill:#F2AE2E;" width="11.377" height="7.027"/>
					<rect x="606.357" y="331.947" style="fill:#F2AE2E;" width="11.377" height="7.027"/>
					<rect x="656.167" y="331.947" style="fill:#F2AE2E;" width="11.377" height="7.027"/>
					<g>
						<rect x="556.545" y="350.989" style="fill:#F2AE2E;" width="3.76" height="9.292"/>
						<rect x="564.162" y="350.989" style="fill:#F2AE2E;" width="3.76" height="9.292"/>
					</g>
					<g>
						<rect x="606.357" y="350.989" style="fill:#F2AE2E;" width="3.76" height="9.292"/>
						<rect x="613.973" y="350.989" style="fill:#F2AE2E;" width="3.76" height="9.292"/>
					</g>
					<g>
						<rect x="656.167" y="350.989" style="fill:#F2AE2E;" width="3.76" height="9.292"/>
						<rect x="663.784" y="350.989" style="fill:#F2AE2E;" width="3.76" height="9.292"/>
					</g>
					<g>
						<rect x="556.545" y="375.258" style="fill:#F2AE2E;" width="3.76" height="9.292"/>
						<rect x="564.162" y="375.258" style="fill:#F2AE2E;" width="3.76" height="9.292"/>
					</g>
					<g>
						<rect x="606.357" y="375.258" style="fill:#F2AE2E;" width="3.76" height="9.292"/>
						<rect x="613.973" y="375.258" style="fill:#F2AE2E;" width="3.76" height="9.292"/>
					</g>
					<g>
						<rect x="656.167" y="375.258" style="fill:#F2AE2E;" width="3.76" height="9.292"/>
						<rect x="663.784" y="375.258" style="fill:#F2AE2E;" width="3.76" height="9.292"/>
					</g>
					<g>
						<rect x="556.545" y="393.097" style="fill:#F2AE2E;" width="3.76" height="9.292"/>
						<rect x="564.162" y="393.097" style="fill:#F2AE2E;" width="3.76" height="9.292"/>
					</g>
					<g>
						<rect x="606.357" y="393.097" style="fill:#F2AE2E;" width="3.76" height="9.292"/>
						<rect x="613.973" y="393.097" style="fill:#F2AE2E;" width="3.76" height="9.292"/>
					</g>
					<g>
						<rect x="656.167" y="393.097" style="fill:#F2AE2E;" width="3.76" height="9.292"/>
						<rect x="663.784" y="393.097" style="fill:#F2AE2E;" width="3.76" height="9.292"/>
					</g>
				</g>
				<rect x="550.378" y="407.577" style="fill:#F7CC8D;" width="123.333" height="9.224"/>
			</g>
			<g>
				<polygon style="fill:#98A665;" points="113.721,288.901 113.721,254.135 93.054,254.135 93.054,264.96 80.584,264.96 
					80.584,288.901 70.773,288.901 70.773,417.05 123.532,417.05 123.532,288.901 				"/>
				<g>
					<g>
						<rect x="74.926" y="296.049" style="fill:#B2BC86;" width="10.711" height="10.001"/>
						<rect x="91.797" y="296.049" style="fill:#B2BC86;" width="10.711" height="10.001"/>
						<rect x="108.668" y="296.049" style="fill:#B2BC86;" width="10.711" height="10.001"/>
					</g>
					<g>
						<rect x="74.926" y="313.491" style="fill:#B2BC86;" width="10.711" height="10.001"/>
						<rect x="91.797" y="313.491" style="fill:#B2BC86;" width="10.711" height="10.001"/>
						<rect x="108.668" y="313.491" style="fill:#B2BC86;" width="10.711" height="10.001"/>
					</g>
					<g>
						<rect x="74.926" y="330.933" style="fill:#B2BC86;" width="10.711" height="10.001"/>
						<rect x="91.797" y="330.933" style="fill:#B2BC86;" width="10.711" height="10.001"/>
						<rect x="108.668" y="330.933" style="fill:#B2BC86;" width="10.711" height="10.001"/>
					</g>
					<g>
						<rect x="74.926" y="348.375" style="fill:#B2BC86;" width="10.711" height="10.002"/>
						<rect x="91.797" y="348.375" style="fill:#B2BC86;" width="10.711" height="10.002"/>
						<rect x="108.668" y="348.375" style="fill:#B2BC86;" width="10.711" height="10.002"/>
					</g>
					<g>
						<rect x="74.926" y="365.817" style="fill:#B2BC86;" width="10.711" height="10.002"/>
						<rect x="91.797" y="365.817" style="fill:#B2BC86;" width="10.711" height="10.002"/>
						<rect x="108.668" y="365.817" style="fill:#B2BC86;" width="10.711" height="10.002"/>
					</g>
					<g>
						<rect x="74.926" y="383.259" style="fill:#B2BC86;" width="10.711" height="10.002"/>
						<rect x="91.797" y="383.259" style="fill:#B2BC86;" width="10.711" height="10.002"/>
						<rect x="108.668" y="383.259" style="fill:#B2BC86;" width="10.711" height="10.002"/>
					</g>
					<g>
						<rect x="74.926" y="400.701" style="fill:#B2BC86;" width="10.711" height="10.002"/>
						<rect x="91.797" y="400.701" style="fill:#B2BC86;" width="10.711" height="10.002"/>
						<rect x="108.668" y="400.701" style="fill:#B2BC86;" width="10.711" height="10.002"/>
					</g>
				</g>
			</g>
			<g>
				<rect x="149.144" y="301.793" style="fill:#F2AE2E;" width="62.566" height="117.009"/>
				<rect x="149.144" y="216.094" style="fill:#F2AE2E;" width="62.566" height="26.842"/>
				<rect x="141.52" y="234.288" style="fill:#F2AE2E;" width="77.813" height="67.505"/>
				<g>
					<path style="fill:#F7CC8D;" d="M214.285,297.534h-67.717v-58.987h67.717V297.534z M148.393,295.71h64.068v-55.339h-64.068
						V295.71z"/>
				</g>
				<g>
					<path style="fill:#F7CC8D;" d="M210.777,294.001H150.14v-51.93h60.637V294.001z M150.596,293.545h59.724v-51.017h-59.724
						V293.545z"/>
				</g>
				
					<ellipse transform="matrix(0.9313 -0.3642 0.3642 0.9313 -85.2355 84.1299)" style="fill:#F7CC8D;" cx="180.426" cy="268.04" rx="18.949" ry="18.949"/>
				<g>
					<path style="fill:#F7CC8D;" d="M180.426,290.013c-12.116,0-21.973-9.857-21.973-21.973c0-12.116,9.857-21.974,21.973-21.974
						c12.116,0,21.973,9.858,21.973,21.974C202.399,280.156,192.542,290.013,180.426,290.013z M180.426,246.979
						c-11.613,0-21.061,9.448-21.061,21.061c0,11.612,9.448,21.06,21.061,21.06c11.613,0,21.061-9.448,21.061-21.06
						C201.487,256.427,192.039,246.979,180.426,246.979z"/>
				</g>
				<g>
					<g>
						<rect x="159.342" y="311.511" style="fill:#F7CC8D;" width="4.004" height="28.192"/>
						<rect x="168.884" y="311.511" style="fill:#F7CC8D;" width="4.004" height="28.192"/>
						<rect x="178.425" y="311.511" style="fill:#F7CC8D;" width="4.004" height="28.192"/>
						<rect x="187.966" y="311.511" style="fill:#F7CC8D;" width="4.004" height="28.192"/>
						<rect x="197.507" y="311.511" style="fill:#F7CC8D;" width="4.004" height="28.192"/>
					</g>
					<g>
						<rect x="159.342" y="346.201" style="fill:#F7CC8D;" width="4.004" height="28.192"/>
						<rect x="168.884" y="346.201" style="fill:#F7CC8D;" width="4.004" height="28.192"/>
						<rect x="178.425" y="346.201" style="fill:#F7CC8D;" width="4.004" height="28.192"/>
						<rect x="187.966" y="346.201" style="fill:#F7CC8D;" width="4.004" height="28.192"/>
						<rect x="197.507" y="346.201" style="fill:#F7CC8D;" width="4.004" height="28.192"/>
					</g>
					<g>
						<rect x="159.342" y="380.891" style="fill:#F7CC8D;" width="4.004" height="28.192"/>
						<rect x="168.884" y="380.891" style="fill:#F7CC8D;" width="4.004" height="28.192"/>
						<rect x="178.425" y="380.891" style="fill:#F7CC8D;" width="4.004" height="28.192"/>
						<rect x="187.966" y="380.891" style="fill:#F7CC8D;" width="4.004" height="28.192"/>
						<rect x="197.507" y="380.891" style="fill:#F7CC8D;" width="4.004" height="28.192"/>
					</g>
				</g>
				<g>
					<path style="fill:#F7CC8D;" d="M165.287,230.528h-7.75v-5.495c0-1.984,1.608-3.592,3.592-3.592h0.567
						c1.984,0,3.592,1.608,3.592,3.592V230.528z"/>
					<path style="fill:#F7CC8D;" d="M177.963,230.528h-7.75v-5.495c0-1.984,1.608-3.592,3.592-3.592h0.567
						c1.984,0,3.592,1.608,3.592,3.592V230.528z"/>
					<path style="fill:#F7CC8D;" d="M190.64,230.528h-7.75v-5.495c0-1.984,1.608-3.592,3.592-3.592h0.567
						c1.984,0,3.592,1.608,3.592,3.592V230.528z"/>
					<path style="fill:#F7CC8D;" d="M203.316,230.528h-7.75v-5.495c0-1.984,1.608-3.592,3.592-3.592h0.567
						c1.984,0,3.592,1.608,3.592,3.592V230.528z"/>
				</g>
				<path style="fill:#F2AE2E;" d="M187.056,173.594h-13.259c-0.613,26.997-15.929,33.366-15.929,33.366v6.593h45.117v-6.593
					C202.985,206.96,187.669,200.59,187.056,173.594z"/>
				<path style="fill:#F2AE2E;" d="M183.009,267.642h-1.429c-0.064-0.098-0.145-0.179-0.243-0.243v-15.613h-0.912v15.613
					c-0.098,0.064-0.179,0.145-0.243,0.243h-9.28v0.912h9.28c0.064,0.098,0.145,0.179,0.243,0.243v1.62h0.912v-1.62
					c0.098-0.064,0.179-0.145,0.243-0.243h1.429V267.642z"/>
				<path style="fill:#F2AE2E;" d="M182.998,165.43c0.055-0.213,0.093-0.432,0.093-0.662c0-1.144-0.725-2.111-1.737-2.489v-27.701
					c1.012-0.378,1.737-1.345,1.737-2.489c0-1.472-1.193-2.665-2.665-2.665c-1.471,0-2.664,1.193-2.664,2.665
					c0,1.144,0.725,2.111,1.737,2.489v27.701c-1.012,0.378-1.737,1.345-1.737,2.489c0,0.23,0.038,0.449,0.093,0.662h-2.618v6.843
					h10.379v-6.843H182.998z"/>
			</g>
			<g>
				<rect x="292.144" y="340.731" style="fill:#F2836B;" width="131.886" height="22.181"/>
				<rect x="292.144" y="340.731" style="fill:#F9A395;" width="131.886" height="3.077"/>
				<rect x="292.144" y="360.101" style="fill:#F9A395;" width="131.886" height="3.077"/>
				<g>
					<rect x="245.272" y="309.986" style="fill:#F2836B;" width="51.451" height="106.767"/>
					<polygon style="fill:#F2836B;" points="283.632,257.333 270.998,306.622 296.266,306.622 					"/>
					<polygon style="fill:#F2836B;" points="258.135,257.333 245.272,306.622 270.998,306.622 					"/>
					<g>
						<path style="fill:#F9A395;" d="M300.827,309.986v-3.364H283.64l-12.634-49.289l-12.634,49.289h-17.187v3.364h15.269v25.708
							h-15.269v3.364h15.269v25.708h-15.269v3.364h15.269v25.708h-15.269v3.364h15.269v19.549h3.364v-19.549h22.133v19.549h3.364
							v-19.549h15.513v-3.364h-15.513v-25.708h15.513v-3.364h-15.513v-25.708h15.513v-3.364h-15.513v-25.708H300.827z
							 M281.95,393.839h-22.133v-25.708h22.133V393.839z M281.95,364.767h-22.133v-25.708h22.133V364.767z M281.95,335.694h-22.133
							v-25.708h22.133V335.694z"/>
						<rect x="262.85" y="313.114" style="fill:#F9A395;" width="6.639" height="19.454"/>
						<rect x="272.522" y="313.114" style="fill:#F9A395;" width="6.639" height="19.454"/>
						<rect x="262.85" y="342.186" style="fill:#F9A395;" width="6.639" height="19.454"/>
						<rect x="272.522" y="342.186" style="fill:#F9A395;" width="6.639" height="19.454"/>
						<rect x="262.85" y="371.258" style="fill:#F9A395;" width="6.639" height="19.454"/>
						<rect x="272.522" y="371.258" style="fill:#F9A395;" width="6.639" height="19.454"/>
						<rect x="262.85" y="400.331" style="fill:#F9A395;" width="6.639" height="16.422"/>
						<rect x="272.522" y="400.331" style="fill:#F9A395;" width="6.639" height="16.422"/>
					</g>
				</g>
				<g>
					<rect x="420.096" y="309.986" style="fill:#F2836B;" width="51.451" height="106.767"/>
					<polygon style="fill:#F2836B;" points="458.456,257.333 445.822,306.622 471.09,306.622 					"/>
					<polygon style="fill:#F2836B;" points="432.959,257.333 420.096,306.622 445.822,306.622 					"/>
					<g>
						<path style="fill:#F9A395;" d="M475.651,309.986v-3.364h-17.187l-12.634-49.289l-12.634,49.289h-17.187v3.364h15.269v25.708
							h-15.269v3.364h15.269v25.708h-15.269v3.364h15.269v25.708h-15.269v3.364h15.269v19.549h3.364v-19.549h22.133v19.549h3.364
							v-19.549h15.513v-3.364h-15.513v-25.708h15.513v-3.364h-15.513v-25.708h15.513v-3.364h-15.513v-25.708H475.651z
							 M456.774,393.839h-22.133v-25.708h22.133V393.839z M456.774,364.767h-22.133v-25.708h22.133V364.767z M456.774,335.694
							h-22.133v-25.708h22.133V335.694z"/>
						<rect x="437.674" y="313.114" style="fill:#F9A395;" width="6.639" height="19.454"/>
						<rect x="447.345" y="313.114" style="fill:#F9A395;" width="6.639" height="19.454"/>
						<rect x="437.674" y="342.186" style="fill:#F9A395;" width="6.639" height="19.454"/>
						<rect x="447.345" y="342.186" style="fill:#F9A395;" width="6.639" height="19.454"/>
						<rect x="437.674" y="371.258" style="fill:#F9A395;" width="6.639" height="19.454"/>
						<rect x="447.345" y="371.258" style="fill:#F9A395;" width="6.639" height="19.454"/>
						<rect x="437.674" y="400.331" style="fill:#F9A395;" width="6.639" height="16.422"/>
						<rect x="447.345" y="400.331" style="fill:#F9A395;" width="6.639" height="16.422"/>
					</g>
				</g>
				<g>
					<rect x="296.723" y="346.213" style="fill:#F9A395;" width="1.527" height="11.23"/>
					<rect x="302.816" y="346.213" style="fill:#F9A395;" width="1.527" height="11.23"/>
					<rect x="308.908" y="346.213" style="fill:#F9A395;" width="1.527" height="11.23"/>
					<rect x="315" y="346.213" style="fill:#F9A395;" width="1.527" height="11.23"/>
					<rect x="321.093" y="346.213" style="fill:#F9A395;" width="1.527" height="11.23"/>
					<rect x="327.185" y="346.213" style="fill:#F9A395;" width="1.527" height="11.23"/>
					<rect x="333.277" y="346.213" style="fill:#F9A395;" width="1.527" height="11.23"/>
					<rect x="339.37" y="346.213" style="fill:#F9A395;" width="1.527" height="11.23"/>
					<rect x="345.462" y="346.213" style="fill:#F9A395;" width="1.527" height="11.23"/>
					<rect x="351.554" y="346.213" style="fill:#F9A395;" width="1.527" height="11.23"/>
					<rect x="357.646" y="346.213" style="fill:#F9A395;" width="1.527" height="11.23"/>
					<rect x="363.739" y="346.213" style="fill:#F9A395;" width="1.527" height="11.23"/>
					<rect x="369.831" y="346.213" style="fill:#F9A395;" width="1.527" height="11.23"/>
					<rect x="375.923" y="346.213" style="fill:#F9A395;" width="1.527" height="11.23"/>
					<rect x="382.016" y="346.213" style="fill:#F9A395;" width="1.527" height="11.23"/>
					<rect x="388.108" y="346.213" style="fill:#F9A395;" width="1.527" height="11.23"/>
					<rect x="394.2" y="346.213" style="fill:#F9A395;" width="1.527" height="11.23"/>
					<rect x="400.293" y="346.213" style="fill:#F9A395;" width="1.527" height="11.23"/>
					<rect x="406.385" y="346.213" style="fill:#F9A395;" width="1.527" height="11.23"/>
					<rect x="412.477" y="346.213" style="fill:#F9A395;" width="1.527" height="11.23"/>
					<rect x="418.57" y="346.213" style="fill:#F9A395;" width="1.527" height="11.23"/>
				</g>
				<g>
					<path style="fill:#F2836B;" d="M245.272,351.822c0,0-21.364,34.786-102.822,34.385v30.594l102.822-0.048V351.822z"/>
					<polygon style="fill:#F9A395;" points="231.47,412.141 231.47,371.12 229.169,371.12 229.169,412.141 217.839,412.141 
						217.839,378.626 215.537,378.626 215.537,412.141 204.207,412.141 204.207,384.311 201.906,384.311 201.906,412.141 
						190.575,412.141 190.575,389.664 188.274,389.664 188.274,412.141 176.943,412.141 176.943,392.154 174.642,392.154 
						174.642,412.141 163.311,412.141 163.311,392.154 161.01,392.154 161.01,412.141 149.679,412.141 149.679,392.154 
						147.378,392.154 147.378,412.141 142.45,412.141 142.45,416.753 296.723,416.753 296.723,412.141 					"/>
				</g>
				<g>
					<path style="fill:#F2836B;" d="M471.547,351.822c0,0,21.364,34.786,102.822,34.385v30.594l-102.822-0.048V351.822z"/>
					<polygon style="fill:#F9A395;" points="569.442,412.141 569.442,392.154 567.141,392.154 567.141,412.141 555.81,412.141 
						555.81,392.154 553.509,392.154 553.509,412.141 542.178,412.141 542.178,392.154 539.877,392.154 539.877,412.141 
						528.546,412.141 528.546,389.664 526.245,389.664 526.245,412.141 514.914,412.141 514.914,384.311 512.613,384.311 
						512.613,412.141 501.282,412.141 501.282,378.626 498.981,378.626 498.981,412.141 487.65,412.141 487.65,371.12 
						485.349,371.12 485.349,412.141 420.096,412.141 420.096,416.753 574.37,416.753 574.37,412.141 					"/>
				</g>
			</g>
			<rect x="56.323" y="416.801" style="fill:#EDE5E7;" width="637.354" height="6.565"/>
			<path style="fill:#F7F7F7;" d="M296.266,200.535c0,2.277-1.845,4.122-4.122,4.122c-2.277,0-4.122-1.845-4.122-4.122
				s1.845-4.122,4.122-4.122C294.421,196.413,296.266,198.259,296.266,200.535z"/>
			<g>
				<path style="fill:#98A665;" d="M159.998,416.47h-33.652v-42.877c0-9.293,7.533-16.826,16.826-16.826h0
					c9.293,0,16.826,7.533,16.826,16.826V416.47z"/>
				<g>
					<rect x="129.109" y="374.47" style="fill:#B2BC86;" width="7.553" height="11.052"/>
					<rect x="139.395" y="374.47" style="fill:#B2BC86;" width="7.553" height="11.052"/>
					<rect x="149.681" y="374.47" style="fill:#B2BC86;" width="7.553" height="11.052"/>
				</g>
				<g>
					<rect x="129.109" y="387.78" style="fill:#B2BC86;" width="7.553" height="11.052"/>
					<rect x="139.395" y="387.78" style="fill:#B2BC86;" width="7.553" height="11.052"/>
					<rect x="149.681" y="387.78" style="fill:#B2BC86;" width="7.553" height="11.052"/>
				</g>
				<g>
					<rect x="129.109" y="401.089" style="fill:#B2BC86;" width="7.553" height="11.052"/>
					<rect x="139.395" y="401.089" style="fill:#B2BC86;" width="7.553" height="11.052"/>
					<rect x="149.681" y="401.089" style="fill:#B2BC86;" width="7.553" height="11.052"/>
				</g>
				<path style="fill:#B2BC86;" d="M149,365.739c0,3.219-2.61,5.829-5.829,5.829c-3.219,0-5.829-2.61-5.829-5.829
					c0-3.219,2.61-5.829,5.829-5.829C146.391,359.911,149,362.52,149,365.739z"/>
			</g>
		</g>
	</g>
</g>
</svg>
